<svg xmlns="http://www.w3.org/2000/svg" viewBox="0 0 472.1 46.55"><g id="Layer_2" data-name="Layer 2"><g id="Layer_1-2" data-name="Layer 1"><path d="M3.11,45.12a4.05,4.05,0,0,1-1.32-1.35A8.84,8.84,0,0,1,1,42a14.81,14.81,0,0,1-.53-2c-.14-.68-.28-1.34-.44-2a1.78,1.78,0,0,1,.35-1.21c.24-.25.49-.49.76-.73a21.76,21.76,0,0,0,2.52-.23l2.17-.35c.7-.12,1.41-.23,2.11-.33a18.05,18.05,0,0,1,2.29-.14c.58-1.21,1.13-2.38,1.64-3.49s1-2.18,1.46-3.19a16.49,16.49,0,0,1,.91-2.73q.55-1.26,1.08-2.4c.35-.76.67-1.52.94-2.28a10.18,10.18,0,0,0,.53-2.44q.7-2,1.26-3.78a22.78,22.78,0,0,0,.85-4.13c-1.49.24-2.68.46-3.58.68a9.83,9.83,0,0,0-1.93.61,3.89,3.89,0,0,1-1.85-.47,3.44,3.44,0,0,1-1.08-1,6.12,6.12,0,0,1-.7-1.35c-.2-.51-.43-1-.71-1.58A3,3,0,0,0,9.14,6a2.13,2.13,0,0,0-.7-1.5,1.09,1.09,0,0,0,.7-.79,1.32,1.32,0,0,0,.06-1,10.11,10.11,0,0,1,2.11-.39l2.2-.17c.72-.06,1.41-.14,2.08-.24a4.05,4.05,0,0,0,1.7-.61l6.35-.24Q27,.95,29.77.76a7.5,7.5,0,0,0,2.43.35A21.28,21.28,0,0,1,35,1.29a7,7,0,0,1,2.46.76,3.2,3.2,0,0,1,1.5,2.05,2.71,2.71,0,0,1,1.31.47,1.49,1.49,0,0,1,.56.85,3.91,3.91,0,0,1,.09,1.11q0,.62,0,1.2a7.93,7.93,0,0,1-2.37,1.15,23.9,23.9,0,0,1-3.14.7,32.65,32.65,0,0,1-3.54.35l-3.61.15a37,37,0,0,1-1,4.54q-.73,2.61-1.5,5.1c-.5,1.66-.94,3.14-1.31,4.45a8.85,8.85,0,0,0-.5,2.55c-.39.9-.72,1.66-1,2.28s-.49,1.22-.7,1.76-.43,1.09-.65,1.61-.48,1.13-.79,1.79h4a1.17,1.17,0,0,0,.52.88,6.43,6.43,0,0,0,.88.41,3.79,3.79,0,0,1,.85.44.94.94,0,0,1,.38.85,2.06,2.06,0,0,1,1.41.88,1.94,1.94,0,0,1,.15,1.26,4.37,4.37,0,0,1-.59,1.37,14.36,14.36,0,0,1-.85,1.23,1.16,1.16,0,0,0-1,.27,7,7,0,0,0-.87.85,13.38,13.38,0,0,0-3.34-.06c-1.1.12-2.11.21-3.05.29-.2,0-.28.15-.24.32a.35.35,0,0,1-.11.39,10,10,0,0,0-3.72-.47,25.21,25.21,0,0,0-3.87.55c-1.31.3-2.65.61-4,.94A20.21,20.21,0,0,1,3.11,45.12Z" style="fill:#fff"/><path d="M42.44,42.42a3.5,3.5,0,0,1-2,2.76,3.74,3.74,0,0,1-1.14-.06,7,7,0,0,1-.79-.3,3.94,3.94,0,0,0-.94-.29l-.64-.47a4,4,0,0,0-.3-.58,4.19,4.19,0,0,0-.41-.59,9.76,9.76,0,0,1-.93-1.46,7.06,7.06,0,0,1-.12-2.85,21.84,21.84,0,0,1,.58-2.25L36,35.6c.08-.26.15-.5.23-.74A5.26,5.26,0,0,1,34,32.52a8.08,8.08,0,0,1-.88-2.93,4.38,4.38,0,0,1,.64-1.79,4.14,4.14,0,0,1,1.09-1.08,6,6,0,0,1,1.29-.65c.45-.15.88-.29,1.31-.41l.77.3a5,5,0,0,0,1,.82,1,1,0,0,0,.56-.56,7.17,7.17,0,0,0,.26-.85c.12-.35.25-.7.38-1.05a7.83,7.83,0,0,1,.5-1.06,2.84,2.84,0,0,1,.23-1.4,1.84,1.84,0,0,0-.87-.36,3,3,0,0,1-.59-.11,4.61,4.61,0,0,1-1-.91l-.49-.73a3.73,3.73,0,0,0-.88-1.23l-.59-.41.29-.59a.4.4,0,0,0,.12-.29,1.15,1.15,0,0,0-.23-.53,1.56,1.56,0,0,1,0-.88l.11-.59a3.57,3.57,0,0,0,.47-.7l.53-.53c.78-.19,1.55-.42,2.31-.67s1.54-.52,2.32-.79l2.25-.73c.77-.26,1.54-.48,2.32-.68a2.23,2.23,0,0,1,.88-.38c.31-.06.6-.1.88-.14l.64-.09a.51.51,0,0,0,.41-.21l1.64-.52c1-.28,2.27-.58,3.87-.91A50.62,50.62,0,0,1,61,8.09L62,8a1.89,1.89,0,0,0,.58,0,5.83,5.83,0,0,1,.59,0c1.76,0,2.87.52,3.34,1.58a6.07,6.07,0,0,1,.93.64c.28.24.53.47.77.71a2.46,2.46,0,0,0,.38.41,1.83,1.83,0,0,0,.32.23,3.24,3.24,0,0,1,.64,2.7,1.93,1.93,0,0,1-1.34.88l-.65.35q-.64-.06-1-.06h-.68c-1,0-2.11.06-3.4.17s-2.6.29-3.95.5-2.65.48-3.9.79a32.8,32.8,0,0,0-3.28,1l-1.05.53a2.88,2.88,0,0,0-.47,1c0,.26-.08.5-.12.73a4.3,4.3,0,0,0-.09.47c0,.16,0,.34-.09.53a4.53,4.53,0,0,0-1,2.93,6.77,6.77,0,0,0-.53,1A1.32,1.32,0,0,0,48,26a4.16,4.16,0,0,0,2.11.35c.66-.08,1.33-.18,2-.29.9-.16,1.83-.3,2.79-.41a23.61,23.61,0,0,1,3-.18h1.88l-.47.47.29.82.5.23a1.5,1.5,0,0,1,.32.18l.3.53a1.19,1.19,0,0,1,.44.41,2,2,0,0,1,.26.88L59,32.34l-.82.24a4.26,4.26,0,0,0-1.76.23c-.27.08-.55.15-.82.21a4.17,4.17,0,0,1-.88.09c-.78.15-1.44.27-2,.35l-1.61.23c-.71.08-1.39.19-2.06.32a12,12,0,0,0-1.87.56h-.82a3.37,3.37,0,0,0-1,.15l-.91.26a1.44,1.44,0,0,0-.41.5l-.23.56a4.08,4.08,0,0,1-.64,1.34v.88a2.9,2.9,0,0,0-.56.91,5.64,5.64,0,0,1-.21.62,2,2,0,0,0-.17.32.83.83,0,0,0-.06.32A2.85,2.85,0,0,1,42.44,42.42Z" style="fill:#fff"/><path d="M99.89,16.23a25.76,25.76,0,0,0-3.16.21c-1.14.13-2.25.28-3.34.44-.79.11-1.54.21-2.26.29s-1.38.14-2,.17c-.28.86-.55,1.63-.82,2.29s-.57,1.31-.88,1.93-.6,1.34-.85,2-.5,1.42-.73,2.2a16,16,0,0,0-1,1.73,8.54,8.54,0,0,0-.62,1.79,6.32,6.32,0,0,0-1,1.84,17,17,0,0,0-.53,1.67l-.23.71a1.51,1.51,0,0,0-.41.55.71.71,0,0,1-.3.38,3.24,3.24,0,0,1-.41,1.29,3.52,3.52,0,0,0-.17.56,1.88,1.88,0,0,0-.06.38.84.84,0,0,1-.29.76,2.15,2.15,0,0,1,0,.62c0,.21-.08.42-.12.61a3,3,0,0,0-.12,1.12l.32.41a1,1,0,0,1,.21.46,2.38,2.38,0,0,0,.53.3,5.69,5.69,0,0,0,.7.41l.53.58a3.22,3.22,0,0,1-.53,2.7,3.6,3.6,0,0,1-3,1.11h-.7a1.29,1.29,0,0,1-.35-.47c-.32-.11-.57-.21-.77-.29a1.15,1.15,0,0,1-.52-.47c-.51-.23-.92-.43-1.23-.58l-.53-.3V43a3.87,3.87,0,0,1-.62-1.17,12.14,12.14,0,0,1-.32-1.29c-.08-.35-.16-.68-.26-1a3.65,3.65,0,0,0-.38-.82,16.76,16.76,0,0,1,.64-5.74c.51-1.56,1-3.07,1.58-4.51.32-.78.63-1.57.94-2.38a24.19,24.19,0,0,0,.82-2.49l.53-.58c.27-.63.5-1.14.67-1.55s.36-.83.56-1.26.22-.54.32-.79l.27-.68a6.46,6.46,0,0,0-.65,0,5.81,5.81,0,0,0-.58.09l-.65.09a5.68,5.68,0,0,1-.59,0,2,2,0,0,1-.58-.06,3.45,3.45,0,0,1-1.41.29H75a1.69,1.69,0,0,1-.33,0l-.26,0a2.1,2.1,0,0,0-.94.18H71.53l-.29,0-.3,0a4.78,4.78,0,0,1-.88-.09,3.51,3.51,0,0,1-1-.38c-.47-.63-.78-1-.94-1l-.53-.7a3.76,3.76,0,0,0-.17-.68c-.08-.21-.16-.45-.24-.73s-.3-.81-.44-1.26a5.8,5.8,0,0,1-.2-1.61,1.55,1.55,0,0,1,.23-.7l.3-.41.17-.88L68,11h1.64q1.88,0,3.81-.15c1.29-.1,2.62-.2,4-.32l2.37-.24L82.31,10c.16-.35.31-.68.47-1l.59-.29A2.39,2.39,0,0,1,84.86,9a6.16,6.16,0,0,1,.73.62l2.61-.26Q89.52,9.2,90.87,9c1.32-.19,2.66-.37,4-.52a33.16,33.16,0,0,1,3.9-.24c.54,0,1.07,0,1.58.06a13.3,13.3,0,0,1,1.4.18l.59.41a2.14,2.14,0,0,0,.5.64c.21.2.44.39.67.59a14,14,0,0,1,1.41,1.52,3.5,3.5,0,0,1,.53,2.58,2.73,2.73,0,0,1-.71.82l-.52.7-.59-.06a2.22,2.22,0,0,0-.65.09c-.19.06-.39.13-.58.21a4.73,4.73,0,0,1-.47.2,3.35,3.35,0,0,1-.53.15c-.35,0-.63,0-.85,0S100.12,16.23,99.89,16.23Z" style="fill:#fff"/><path d="M127.64,39.49a9.35,9.35,0,0,1-1,2A8.84,8.84,0,0,1,123,44.65a6.11,6.11,0,0,1-2.34.58,2.73,2.73,0,0,1-1-.38c-.17-.13-.36-.26-.55-.38l-.33-.2-.26-.15-.7-.29.23-.76a.9.9,0,0,0-.06-.74,4.31,4.31,0,0,0-.7-.73l-.35-.35a1.79,1.79,0,0,1-.29-.35l-1-1.11,1.58-.41a3.73,3.73,0,0,0,2-1.06,3.2,3.2,0,0,0,.39-2.17,5.13,5.13,0,0,0-2-.06c-.53.12-1.06.26-1.61.41-.7.2-1.42.37-2.14.5a12.44,12.44,0,0,1-2.37.21c-.31,0-.61,0-.88,0l-.88-.09-.58-.12a1.53,1.53,0,0,0-.24-.73l-.23-.2a4.85,4.85,0,0,1-.62-.8A1.6,1.6,0,0,1,107.9,34a2.74,2.74,0,0,1-.36-1,6.53,6.53,0,0,0-.52,1.46l-.24.59-.58.12a.41.41,0,0,0-.18.26,1.3,1.3,0,0,0-.06.32l-.29,1a1.41,1.41,0,0,1-.24.2l-.23.21c-.08.35-.18.7-.29,1s-.24.69-.35,1a14.49,14.49,0,0,0-.5,1.49,4,4,0,0,0-.15,1.44l-.23.64a2.26,2.26,0,0,1-.65.56c-.23.14-.47.27-.7.38a1.11,1.11,0,0,1-.32.21l-.33.14-.17.65-.7.12c-.43.07-.74.13-.91.17a2.83,2.83,0,0,1-.62.06l-.58-.06c-.43-.35-.77-.63-1-.85a5.46,5.46,0,0,0-.82-.61,3,3,0,0,1-.59-1.06c0-.23-.07-.45-.11-.64a3.18,3.18,0,0,1-.15-.59.6.6,0,0,0-.15-.35l-.76-.7.65-.53,0-1q1.19-3,2.49-5.74c.88-1.83,1.79-3.71,2.73-5.62.31-.63.61-1.25.91-1.88s.59-1.25.91-1.87a1.31,1.31,0,0,1-.06-.41,1.57,1.57,0,0,1,.11-.53A20.11,20.11,0,0,0,104,20.77c.27-.53.55-1.06.82-1.61s.63-1.31,1-1.93A13.81,13.81,0,0,1,107,15.29l.93-.41.41-.14a1.51,1.51,0,0,1,.53-.09l.88.12a8.81,8.81,0,0,0,2.87-2.14,29.94,29.94,0,0,0,2.52-3.31l.59-.82.76.46a3.29,3.29,0,0,0,.82.33l1.11.32c.71.16,1.37.33,2,.53A3.59,3.59,0,0,1,122,11a7.23,7.23,0,0,1,.41,1.4,7.73,7.73,0,0,0,.17.94c.12.66.23,1.33.33,2s.16,1.41.2,2.23c.2.66.36,1.32.5,2s.26,1.3.38,2c.19.94.39,1.85.59,2.73a14.74,14.74,0,0,0,.76,2.49,1.65,1.65,0,0,1,.58.06,3.17,3.17,0,0,1,.62-.18l.73-.12.65-.05.23.58c0,.2.23.39.59.59a2.15,2.15,0,0,1,1.11.32,5.83,5.83,0,0,1,.64.56,2.28,2.28,0,0,0,.47.35l.88.35-.47.88a7.86,7.86,0,0,1-1.67,2,10.37,10.37,0,0,1-2.43,1.61c0,.24.07.46.09.68a3,3,0,0,0,.15.67c.11.66.21,1.35.29,2.05a9.84,9.84,0,0,1,0,2.17ZM110.71,29.36c1.17-.08,2.23-.17,3.19-.27s2-.26,3.19-.5q-.41-1.75-.87-3.66c-.32-1.27-.65-2.53-1-3.78l-.35.59a25.31,25.31,0,0,0-2.26,2.75,33.61,33.61,0,0,0-1.84,2.87l-.71,1.06c-.23.35-.45.7-.64,1a4,4,0,0,1,.67-.06A3.12,3.12,0,0,0,110.71,29.36Z" style="fill:#fff"/><path d="M166.65,42.3a33.91,33.91,0,0,1-5-.11,14.63,14.63,0,0,1-4.19-1.12.56.56,0,0,1-.24-.29,1.51,1.51,0,0,0-.23-.35,1.62,1.62,0,0,0-.85-.15,2.46,2.46,0,0,1-.85-.08,15.57,15.57,0,0,1-1.46-.91c-.67-.45-1.27-.87-1.82-1.26-.7-.55-1.37-1.1-2-1.64a11.73,11.73,0,0,1-1.64-1.76.64.64,0,0,0-.47-.26,1.43,1.43,0,0,1-.53-.15,10.19,10.19,0,0,0-2.87,2.64c-.78,1-1.52,2.12-2.23,3.22a35.94,35.94,0,0,1-2.22,3.1,7.5,7.5,0,0,1-3,2.23,2.32,2.32,0,0,1-.94-.18,3.2,3.2,0,0,1-.76-.44c-.24-.17-.47-.34-.71-.49A2.29,2.29,0,0,0,134,44a3,3,0,0,0-.26-1.29c-.18-.39-.35-.77-.53-1.12a5.11,5.11,0,0,1-.38-1,1.11,1.11,0,0,1,.24-1,5.52,5.52,0,0,0-1.06-.76.83.83,0,0,0,.32-.65,2.45,2.45,0,0,0-.14-.58,5,5,0,0,1-.21-.65.84.84,0,0,1,.15-.7,2.56,2.56,0,0,0,.7-.12c-.23-.31-.34-.49-.32-.55s0-.15-.15-.27,0-.38.12-.44a3.15,3.15,0,0,0,.47-.2,25,25,0,0,1,1-5.33c.51-1.64,1.08-3.23,1.7-4.75s1.24-3.07,1.85-4.63a34.2,34.2,0,0,0,1.49-5,4.92,4.92,0,0,0,1-1.52c.25-.59.53-1.17.82-1.76a16.06,16.06,0,0,1,1-1.73,4.07,4.07,0,0,1,1.55-1.37,3.2,3.2,0,0,1,1.46.44,2.76,2.76,0,0,0,1.59.32l.32.58a2.8,2.8,0,0,0,.38.59l.88-.18a5.46,5.46,0,0,1,1.14,1.32,4.88,4.88,0,0,1,.67,1.67,3.47,3.47,0,0,1-.05,1.67,2.11,2.11,0,0,1-1.12,1.26,1.19,1.19,0,0,1,0,.44,1.07,1.07,0,0,1-.09.27.46.46,0,0,0-.06.23.67.67,0,0,0,.18.35,5.32,5.32,0,0,0-1.76,2.46,9.61,9.61,0,0,0-.64,2.81,19.35,19.35,0,0,1,1.55-1.37c.57-.45,1.15-.89,1.76-1.32s1.19-.84,1.76-1.23,1.08-.78,1.55-1.17a24.67,24.67,0,0,1,3.72-2.85q1.78-1.08,3.78-2.43a1.55,1.55,0,0,1,.73,0l.56.21c0-.24-.07-.37-.21-.41s-.18-.2-.14-.47a8.08,8.08,0,0,0,1.52-.56c.43-.21.9-.42,1.41-.61q.52.53,1,1.08a2,2,0,0,0,1.29.68,2.54,2.54,0,0,0,.7,1c.28.22.55.42.83.62a3.71,3.71,0,0,1,.73.7,2.41,2.41,0,0,1,.38,1.29c-.16.27-.32.57-.5.88a7.3,7.3,0,0,0-.5,1.11,22.16,22.16,0,0,1-2.37,1.88c-.8.54-1.61,1.07-2.43,1.58s-1.66,1-2.52,1.52a25.63,25.63,0,0,0-2.64,1.82,3.37,3.37,0,0,1-.73.73c-.29.22-.6.43-.91.65a10.16,10.16,0,0,0-.88.67,2.53,2.53,0,0,0-.64.82,1.12,1.12,0,0,1-.35.06,1.13,1.13,0,0,0-.36.06,1.32,1.32,0,0,1-.55.64,1.08,1.08,0,0,0-.5.65,7.24,7.24,0,0,0,2.28,2.87,9.41,9.41,0,0,0,3.17,1.43,16.29,16.29,0,0,0,3.81.47c1.36,0,2.79,0,4.27,0,.16,0,.23-.13.21-.26s.07-.19.26-.15a4.89,4.89,0,0,1,2.17,1.32,13.57,13.57,0,0,0,1.82,1.67A6.09,6.09,0,0,1,169.93,40,8.5,8.5,0,0,1,166.65,42.3Z" style="fill:#fff"/><path d="M201.7,38.73a5.11,5.11,0,0,1-.35,2.52,5.29,5.29,0,0,1-1.29,1.7,6.44,6.44,0,0,1-1.88,1.11c-.7.28-1.39.53-2.05.76-.31-.19-.61-.4-.91-.61a3.24,3.24,0,0,0-1-.5q-.76-1.41-1.47-2.49a4.12,4.12,0,0,1-.64-2.49s0-.25.09-.64.13-.82.23-1.29.18-.91.23-1.32.09-.64.09-.68a13.2,13.2,0,0,0-2.81.59,22.61,22.61,0,0,0-2.84,1.11q-1.38.64-2.58,1.29c-.8.43-1.46.8-2,1.12a3.82,3.82,0,0,1-.24.85,13.06,13.06,0,0,1-.58,1.4,9.17,9.17,0,0,1-.77,1.32c-.27.39-.54.59-.82.59a1.67,1.67,0,0,0,.18.35.48.48,0,0,1,0,.47,5.88,5.88,0,0,0-1.46.61,8.81,8.81,0,0,1-1.35.65,4.47,4.47,0,0,1-1.53.26,4.32,4.32,0,0,1-1.93-.59.81.81,0,0,0-.29-.61,4.6,4.6,0,0,0-.62-.47l-.55-.35q-.24-.15-.24-.27c-.19,0-.27-.09-.23-.41s.19-.39.47-.23a4,4,0,0,1-.8-1.44,6.19,6.19,0,0,0-.67-1.55,1,1,0,0,0,.21-.41l.14-.53a.77.77,0,0,1,.18-.35c.08-.07.17-.06.29.06a1.63,1.63,0,0,1,0-.88c.08-.23.16-.45.24-.64a4.36,4.36,0,0,0,.17-.59.87.87,0,0,0-.17-.64,7.11,7.11,0,0,0,1.23-2.79,19.7,19.7,0,0,0,.35-2.72,3.57,3.57,0,0,0,.73-1.17,10,10,0,0,0,.5-1.55,5.82,5.82,0,0,0,.14-1.53,3.83,3.83,0,0,0-.2-1.2c0-.19.25-.25.64-.17a36.45,36.45,0,0,0,.5-4.37c.1-1.62.27-3.16.5-4.63a13.51,13.51,0,0,1,1.17-3.87,4.09,4.09,0,0,1,2.64-2.19,8.51,8.51,0,0,0,.91,2.16,14.91,14.91,0,0,0,1.23,1.79c.45.57.9,1.14,1.34,1.73a14.13,14.13,0,0,1,1.26,2c0,.74-.11,1.6-.23,2.58s-.26,2-.44,3-.35,2-.53,2.93-.34,1.74-.49,2.4a.38.38,0,0,0,.32.35c.17,0,.2.22.09.53.93-.23,1.91-.45,2.93-.65s2-.41,3-.64,2-.5,3-.79a15.2,15.2,0,0,0,2.67-1.08c.19-1.53.45-3.05.76-4.57a13.65,13.65,0,0,0,.12-4.69,1.68,1.68,0,0,0,.46-.59.94.94,0,0,1,.59-.47,7.51,7.51,0,0,1-.23-2.34,7.89,7.89,0,0,1,.44-2.34,5.17,5.17,0,0,1,1.11-1.91,3.3,3.3,0,0,1,1.79-1,11.58,11.58,0,0,1,1.11,2c.31.72.63,1.44,1,2.17s.68,1.4,1,2.05A5.89,5.89,0,0,0,205,15.59c.11,1.13.2,2.3.26,3.51s.11,2.44.15,3.69c-.32,1.49-.66,2.92-1,4.31a28.43,28.43,0,0,0-.79,4.42,3.71,3.71,0,0,0-.64,1.06c-.16.39-.32.79-.47,1.2A10.4,10.4,0,0,1,202,35a4.16,4.16,0,0,1-.7,1,2.41,2.41,0,0,1,.08,1.32A2.18,2.18,0,0,0,201.7,38.73Z" style="fill:#fff"/><path d="M237.78,39.49a9.41,9.41,0,0,1-1,2,8.92,8.92,0,0,1-1.58,1.82,8.79,8.79,0,0,1-2,1.32,6.16,6.16,0,0,1-2.35.58,2.67,2.67,0,0,1-1-.38c-.18-.13-.36-.26-.56-.38l-.32-.2-.26-.15-.71-.29.24-.76a.9.9,0,0,0-.06-.74,4.76,4.76,0,0,0-.7-.73l-.36-.35a3,3,0,0,1-.29-.35l-1-1.11,1.58-.41a3.78,3.78,0,0,0,2-1.06,3.2,3.2,0,0,0,.38-2.17,5.08,5.08,0,0,0-2-.06c-.53.12-1.07.26-1.61.41-.71.2-1.42.37-2.14.5a12.62,12.62,0,0,1-2.38.21q-.47,0-.87,0l-.88-.09-.59-.12a1.71,1.71,0,0,0-.23-.73l-.24-.2a4.86,4.86,0,0,1-.61-.8A1.55,1.55,0,0,1,218,34a2.72,2.72,0,0,1-.35-1,6.56,6.56,0,0,0-.53,1.46l-.23.59-.59.12a.37.37,0,0,0-.17.26,1.3,1.3,0,0,0-.06.32l-.3,1a1.07,1.07,0,0,1-.23.2,1.51,1.51,0,0,0-.23.21,10.34,10.34,0,0,1-.3,1c-.11.36-.23.69-.35,1-.2.51-.36,1-.5,1.49a4.2,4.2,0,0,0-.14,1.44l-.24.64a2.23,2.23,0,0,1-.64.56c-.24.14-.47.27-.71.38a.89.89,0,0,1-.32.21l-.32.14-.18.65-.7.12c-.43.07-.73.13-.91.17a2.74,2.74,0,0,1-.61.06l-.59-.06c-.43-.35-.76-.63-1-.85a6,6,0,0,0-.82-.61,2.82,2.82,0,0,1-.59-1.06c0-.23-.08-.45-.12-.64a3,3,0,0,1-.14-.59.6.6,0,0,0-.15-.35l-.76-.7.64-.53.06-1q1.17-3,2.49-5.74c.88-1.83,1.79-3.71,2.73-5.62.31-.63.61-1.25.9-1.88s.6-1.25.91-1.87a1.31,1.31,0,0,1-.06-.41,1.39,1.39,0,0,1,.12-.53,19.79,19.79,0,0,0,1-1.79c.28-.53.55-1.06.83-1.61s.63-1.31,1-1.93a13.81,13.81,0,0,1,1.26-1.94l.94-.41.41-.14a1.44,1.44,0,0,1,.53-.09l.88.12a8.81,8.81,0,0,0,2.87-2.14,29.94,29.94,0,0,0,2.52-3.31l.58-.82.76.46a3.46,3.46,0,0,0,.82.33l1.12.32c.7.16,1.36.33,2,.53a3.61,3.61,0,0,1,1.52.88,6.57,6.57,0,0,1,.41,1.4,7.78,7.78,0,0,0,.18.94c.12.66.22,1.33.32,2s.17,1.41.21,2.23c.19.66.36,1.32.49,2s.27,1.3.39,2c.19.94.39,1.85.58,2.73a16.83,16.83,0,0,0,.76,2.49,1.68,1.68,0,0,1,.59.06,3.07,3.07,0,0,1,.61-.18l.74-.12.64-.05.24.58c0,.2.23.39.58.59a2.09,2.09,0,0,1,1.11.32,6,6,0,0,1,.65.56,1.85,1.85,0,0,0,.47.35l.88.35-.47.88a7.86,7.86,0,0,1-1.67,2,10.58,10.58,0,0,1-2.43,1.61c0,.24.06.46.08.68a3,3,0,0,0,.15.67c.12.66.21,1.35.29,2.05a9.84,9.84,0,0,1,0,2.17ZM220.84,29.36c1.18-.08,2.24-.17,3.2-.27s2-.26,3.19-.5c-.27-1.17-.57-2.39-.88-3.66s-.64-2.53-1-3.78l-.35.59a25.25,25.25,0,0,0-2.25,2.75,33.89,33.89,0,0,0-1.85,2.87l-.7,1.06c-.24.35-.45.7-.65,1a4.08,4.08,0,0,1,.68-.06A3,3,0,0,0,220.84,29.36Z" style="fill:#fff"/><path d="M250.89,38.32a35.89,35.89,0,0,1-1.15,3.55,11.13,11.13,0,0,1-1.49,2.49,1.24,1.24,0,0,0-1.06.17,4.1,4.1,0,0,1-.64.53,1.19,1.19,0,0,1-.76,0,1.82,1.82,0,0,1-.41-.27,4.81,4.81,0,0,0-.44-.29,1.67,1.67,0,0,0-.79-.14,8.36,8.36,0,0,0-.27-.88c-.09-.28-.36-.37-.79-.3a1.86,1.86,0,0,0,.06-.79,4.07,4.07,0,0,0-.15-.58c-.05-.18-.1-.35-.14-.53a1.36,1.36,0,0,1,.06-.67c-.2,0-.36-.14-.47-.41a9,9,0,0,0-.41-.82c.11-.71.23-1.37.35-2a14.6,14.6,0,0,1,.44-1.76c.17-.54.32-1.09.44-1.64a2.79,2.79,0,0,0-.18-1.69c.16.11.27.08.35-.09a2.6,2.6,0,0,0,.18-.71,6.36,6.36,0,0,0,.06-.87,3.8,3.8,0,0,0-.06-.74,25.24,25.24,0,0,0,1-3.13c.25-1.08.48-2.14.7-3.2s.44-2.08.67-3.1a15.19,15.19,0,0,1,.94-2.81,3,3,0,0,1,1.44.14c.52.18.85.4,1,.68a12.83,12.83,0,0,0,2.7-2.84c.78-1.12,1.58-2.2,2.4-3.26a17.73,17.73,0,0,1,2.73-2.81,6.81,6.81,0,0,1,3.77-1.46c.79.58,1.65,1.18,2.61,1.78a7.72,7.72,0,0,1,2.38,2.38,4.47,4.47,0,0,1,.79.49,5.62,5.62,0,0,0,.79.56V14a5.23,5.23,0,0,1,1.14,1.5,15,15,0,0,1,.79,1.81l.7,1.94a15.32,15.32,0,0,0,.82,1.84,1.62,1.62,0,0,0-.11.5,1.19,1.19,0,0,0,.09.44c.05.16.1.31.14.47a1.69,1.69,0,0,1,0,.64,6.47,6.47,0,0,1-1.67,4.16,12.12,12.12,0,0,1-3.6,2.61,28.49,28.49,0,0,1-4.51,1.73,41,41,0,0,0-4.34,1.52q0,.24.21.24c.13,0,.18.1.14.29l2.23,1.41a16,16,0,0,0,1.55.88,11.79,11.79,0,0,0,1.58.61c.57.18,1.36.38,2.38.62l2.37.55,1.55.36c.47.09.95.17,1.44.23s1.18.13,2.08.2a5.65,5.65,0,0,1,.91,1.26,5,5,0,0,1,.49,1.47,5.64,5.64,0,0,1,.06,1.41,1.81,1.81,0,0,1-.41,1.08.22.22,0,0,0,.27.15,1.13,1.13,0,0,1,.44,0,1.92,1.92,0,0,0-.59.58l-.47.7a3.21,3.21,0,0,1-.53.62,1.4,1.4,0,0,1-.82.32,7.9,7.9,0,0,1-4.57.09,49.92,49.92,0,0,1-7-2.26c-1.41-.54-2.55-1-3.43-1.43a19.58,19.58,0,0,1-2.28-1.23A13.46,13.46,0,0,1,252.79,40Zm8.37-20.1a10.73,10.73,0,0,1-1.43,1.7c-.53.51-1,1-1.52,1.55A11.08,11.08,0,0,0,255,23.23a6.53,6.53,0,0,0-.82,2.26,16.57,16.57,0,0,0,4.27-1.14l4.22-1.73a5.09,5.09,0,0,0-1.26-2.93A5,5,0,0,0,259.26,18.22Z" style="fill:#fff"/><path d="M297,42.42a.17.17,0,0,1-.24-.12.82.82,0,0,1,0-.35.48.48,0,0,1,.18-.29.33.33,0,0,1,.38,0,4.78,4.78,0,0,1-1-1.7,9.06,9.06,0,0,0-.79-1.87.94.94,0,0,0,.24-.5c0-.22.09-.42.14-.62a1.08,1.08,0,0,1,.24-.44c.1-.09.22-.06.38.09a2.3,2.3,0,0,1,0-1c.08-.28.17-.53.26-.77a3,3,0,0,0,.21-.7,1.34,1.34,0,0,0-.18-.82A8.35,8.35,0,0,0,298.29,30a22,22,0,0,0,.41-3.25,4.58,4.58,0,0,0,.91-1.41,8.22,8.22,0,0,0,.55-1.81,9.82,9.82,0,0,0,.18-1.85,3.6,3.6,0,0,0-.24-1.44.32.32,0,0,1,.27-.26,1.49,1.49,0,0,1,.5,0,44.39,44.39,0,0,0,.55-5.21A50.8,50.8,0,0,1,302,9.23a16.77,16.77,0,0,1,1.43-4.69,4.78,4.78,0,0,1,3.17-2.61,10.11,10.11,0,0,0,1.08,2.58,25.84,25.84,0,0,0,1.47,2.17c.52.7,1.06,1.41,1.61,2.11a17.81,17.81,0,0,1,1.52,2.34c0,.9-.13,1.94-.26,3.11s-.32,2.36-.53,3.57-.43,2.39-.64,3.52-.42,2.09-.62,2.87a.49.49,0,0,0,.41.38c.24.06.27.28.12.67,1.13-.27,2.31-.53,3.54-.79L318,23.7c1.19-.25,2.36-.56,3.51-.91a20.37,20.37,0,0,0,3.25-1.29c.24-1.87.53-3.73.88-5.56a16.78,16.78,0,0,0,.12-5.57,2.68,2.68,0,0,0,.59-.7,1.08,1.08,0,0,1,.7-.53,9.49,9.49,0,0,1-.29-2.84,9.52,9.52,0,0,1,.49-2.78,6.54,6.54,0,0,1,1.32-2.26A4.16,4.16,0,0,1,330.69,0,15.49,15.49,0,0,1,332,2.4L333.21,5a26.32,26.32,0,0,0,1.26,2.49,6.62,6.62,0,0,0,1.73,2c.11,1.37.21,2.77.29,4.19s.14,2.9.18,4.43q-.54,2.63-1.2,5.12a32.93,32.93,0,0,0-1,5.31,4.22,4.22,0,0,0-.76,1.25c-.2.49-.38,1-.56,1.47a13,13,0,0,1-.62,1.44,3.85,3.85,0,0,1-.87,1.17,3.29,3.29,0,0,1,.08,1.55,2.71,2.71,0,0,0,.38,1.73,5.67,5.67,0,0,1-2,5.07A7.52,7.52,0,0,1,328,43.56c-.85.34-1.67.64-2.49.91a10.33,10.33,0,0,1-1.09-.73,3.33,3.33,0,0,0-1.2-.56l.29-.52a15.63,15.63,0,0,1-2-2.49,5.16,5.16,0,0,1-.79-3s0-.3.12-.79.16-1,.26-1.56l.29-1.55c.1-.49.15-.75.15-.79a16.48,16.48,0,0,0-3.4.76c-1.17.39-2.31.83-3.43,1.32s-2.14,1-3.1,1.52-1.73,1-2.32,1.32a4.44,4.44,0,0,1-.29,1c-.19.55-.43,1.12-.7,1.73a9.82,9.82,0,0,1-.91,1.61c-.33.47-.67.68-1,.64a1.57,1.57,0,0,0,.24.44c.08.1.08.29,0,.56a8.1,8.1,0,0,0-1.79.76,10.89,10.89,0,0,1-1.61.79,4.55,4.55,0,0,1-1.79.3,5.6,5.6,0,0,1-2.31-.74,1,1,0,0,0-.35-.73,6.17,6.17,0,0,0-.73-.56l-.68-.41C297.1,42.66,297,42.54,297,42.42Z" style="fill:#fff"/><path d="M369.09,39.49a9.47,9.47,0,0,1-2.6,3.84,8.64,8.64,0,0,1-2,1.32,6.11,6.11,0,0,1-2.34.58,2.6,2.6,0,0,1-1-.38l-.56-.38-.32-.2-.27-.15-.7-.29.23-.76a.94.94,0,0,0-.05-.74,5,5,0,0,0-.71-.73l-.35-.35a2.24,2.24,0,0,1-.29-.35l-1-1.11,1.58-.41a3.81,3.81,0,0,0,2-1.06,3.2,3.2,0,0,0,.38-2.17,5.13,5.13,0,0,0-2-.06c-.52.12-1.06.26-1.61.41a21.48,21.48,0,0,1-2.14.5,12.44,12.44,0,0,1-2.37.21c-.31,0-.61,0-.88,0l-.88-.09-.58-.12a1.53,1.53,0,0,0-.24-.73l-.23-.2a4.85,4.85,0,0,1-.62-.8,1.6,1.6,0,0,1-.14-1.26,2.56,2.56,0,0,1-.35-1,6.56,6.56,0,0,0-.53,1.46l-.24.59-.58.12a.41.41,0,0,0-.18.26,1.3,1.3,0,0,0-.06.32l-.29,1a1.92,1.92,0,0,1-.23.2l-.24.21a10.27,10.27,0,0,1-.29,1c-.12.36-.24.69-.35,1-.2.51-.36,1-.5,1.49a4,4,0,0,0-.15,1.44l-.23.64a2.26,2.26,0,0,1-.65.56,6.8,6.8,0,0,1-.7.38,1,1,0,0,1-.32.21l-.32.14-.18.65-.7.12c-.43.07-.74.13-.91.17a2.83,2.83,0,0,1-.62.06l-.58-.06c-.43-.35-.76-.63-1-.85a5.46,5.46,0,0,0-.82-.61,2.75,2.75,0,0,1-.58-1.06c0-.23-.08-.45-.12-.64a3.18,3.18,0,0,1-.15-.59.66.66,0,0,0-.14-.35l-.77-.7.65-.53.06-1q1.17-3,2.49-5.74c.88-1.83,1.78-3.71,2.72-5.62.31-.63.62-1.25.91-1.88s.59-1.25.91-1.87a1.31,1.31,0,0,1-.06-.41,1.39,1.39,0,0,1,.12-.53,19.79,19.79,0,0,0,1.05-1.79c.27-.53.55-1.06.82-1.61s.64-1.31,1-1.93a13.81,13.81,0,0,1,1.26-1.94l.94-.41.41-.14a1.42,1.42,0,0,1,.52-.09l.88.12a8.81,8.81,0,0,0,2.87-2.14,29.94,29.94,0,0,0,2.52-3.31l.59-.82L358,9a3.46,3.46,0,0,0,.82.33l1.11.32c.71.16,1.37.33,2,.53a3.61,3.61,0,0,1,1.52.88,7.23,7.23,0,0,1,.41,1.4,7.78,7.78,0,0,0,.18.94c.11.66.22,1.33.32,2s.16,1.41.2,2.23c.2.66.36,1.32.5,2s.26,1.3.38,2c.2.94.39,1.85.59,2.73a15.72,15.72,0,0,0,.76,2.49,1.72,1.72,0,0,1,.59.06,3.07,3.07,0,0,1,.61-.18l.73-.12.65-.05.23.58c0,.2.24.39.59.59a2.12,2.12,0,0,1,1.11.32,6,6,0,0,1,.65.56,2,2,0,0,0,.46.35l.88.35-.47.88a7.66,7.66,0,0,1-1.67,2,10.37,10.37,0,0,1-2.43,1.61c0,.24.07.46.09.68a3,3,0,0,0,.15.67c.11.66.21,1.35.29,2.05a9.84,9.84,0,0,1,0,2.17ZM352.16,29.36c1.17-.08,2.24-.17,3.19-.27s2-.26,3.2-.5c-.28-1.17-.57-2.39-.88-3.66s-.65-2.53-1-3.78l-.35.59a26.53,26.53,0,0,0-2.26,2.75c-.72,1-1.33,2-1.84,2.87l-.7,1.06c-.24.35-.45.7-.65,1a4,4,0,0,1,.67-.06A3.12,3.12,0,0,0,352.16,29.36Z" style="fill:#fff"/><path d="M373.47,18.05a5.13,5.13,0,0,1,1.31-2.11,9.69,9.69,0,0,1,2-1.5,13.39,13.39,0,0,1,2.25-1c.78-.27,1.53-.51,2.23-.71q2.34-1,5-1.9c1.78-.6,3.59-1.14,5.45-1.61a32.68,32.68,0,0,1,5.71-.91,17.6,17.6,0,0,1,6.15.73,4.41,4.41,0,0,0,.53,1.12c.23.35.48.7.73,1s.48.7.68,1a2.64,2.64,0,0,1,.35,1,4.75,4.75,0,0,1,.94,1.14,2.21,2.21,0,0,1,.11,1.62c-.39.31-.77.59-1.14.85a8.65,8.65,0,0,1-1.2.67,13.86,13.86,0,0,0-4.4-.35c-1.48.12-2.81.21-4,.29a1.72,1.72,0,0,0-1.26-.53,5.17,5.17,0,0,0-1.52.24l-1.59.47a3.34,3.34,0,0,1-1.49.11,3,3,0,0,1-1.44.62c-.56.1-1.18.19-1.84.26,0,.2,0,.33.12.38s.13.19.05.38a2,2,0,0,0,.91.59l1.17.35a5.26,5.26,0,0,1,1.09.44,1.37,1.37,0,0,1,.64.85,2.82,2.82,0,0,1,1.53.41,3.72,3.72,0,0,1,1.05,1,4.62,4.62,0,0,1,.62,1.26,4.41,4.41,0,0,1,.2,1.2c.12.31.26.45.41.41s.33,0,.53.23a3.66,3.66,0,0,0,.88,1.56,6.33,6.33,0,0,1,1.11,1.72q.12,1.47.18,2.61a5.48,5.48,0,0,1-.41,2.32,13,13,0,0,1-2.43,3.86,19.29,19.29,0,0,1-3.52,3A25.18,25.18,0,0,1,387,43.48a46,46,0,0,1-4.34,1.58.9.9,0,0,0-.46,0c-.16,0-.2-.06-.12-.29a2.29,2.29,0,0,1-1,.52,4.65,4.65,0,0,1-1.2.09l-1.32-.09a4.34,4.34,0,0,0-1.26.06c-.27-.27-.51-.54-.73-.79a2.77,2.77,0,0,1-.5-1c-.19,0-.28-.09-.26-.29s0-.29-.21-.29c.24-.39.35-.62.33-.68a.3.3,0,0,0-.18-.14,1.1,1.1,0,0,1-.26-.15.21.21,0,0,1-.06-.26,2,2,0,0,0,.17-1.09c0-.41-.07-.83-.11-1.26a3.58,3.58,0,0,1,.09-1.23,1.43,1.43,0,0,1,.85-.93,11.79,11.79,0,0,0,3.77-.15A17,17,0,0,0,383.54,36a32.79,32.79,0,0,0,3-1.53c1-.54,1.91-1,2.84-1.46a2.5,2.5,0,0,1,.5-.88,6.82,6.82,0,0,1,.67-.65,4.91,4.91,0,0,0,.65-.64,2.17,2.17,0,0,0,.41-.88c0-.27,0-.44-.21-.5a.41.41,0,0,1-.26-.44l-.64-.17A13.19,13.19,0,0,0,388,27.8a14.38,14.38,0,0,1-2.41-1,1.51,1.51,0,0,1-1.2.17,14.32,14.32,0,0,0-1.43-.35,38.27,38.27,0,0,1-3.84-.41,14.21,14.21,0,0,1-3.55-1.05,1.8,1.8,0,0,0-.29-.53c-.12-.16-.33-.2-.64-.12l-.71-.91a6.68,6.68,0,0,1-.64-1c.08-.47.14-.87.18-1.21a1.23,1.23,0,0,0-.36-1q.24-.77.36-1.23A3.58,3.58,0,0,0,373.47,18.05Z" style="fill:#fff"/><path d="M432.75,39.49a9.41,9.41,0,0,1-1,2,8.62,8.62,0,0,1-1.58,1.82,8.79,8.79,0,0,1-2,1.32,6.11,6.11,0,0,1-2.34.58,2.73,2.73,0,0,1-1-.38c-.18-.13-.36-.26-.56-.38l-.32-.2-.26-.15-.71-.29.24-.76a.9.9,0,0,0-.06-.74,4.76,4.76,0,0,0-.7-.73l-.35-.35a2.33,2.33,0,0,1-.3-.35l-1-1.11,1.58-.41a3.78,3.78,0,0,0,2-1.06,3.2,3.2,0,0,0,.38-2.17,5.08,5.08,0,0,0-2-.06c-.53.12-1.06.26-1.61.41s-1.42.37-2.14.5a12.44,12.44,0,0,1-2.37.21c-.32,0-.61,0-.88,0l-.88-.09-.59-.12c-.08-.43-.15-.67-.23-.73l-.24-.2a4.86,4.86,0,0,1-.61-.8A1.59,1.59,0,0,1,413,34a2.89,2.89,0,0,1-.35-1,7.1,7.1,0,0,0-.53,1.46l-.23.59-.59.12a.4.4,0,0,0-.17.26,1.3,1.3,0,0,0-.06.32l-.29,1a1.41,1.41,0,0,1-.24.2,2.19,2.19,0,0,0-.23.21,10.34,10.34,0,0,1-.3,1c-.11.36-.23.69-.35,1-.19.51-.36,1-.5,1.49a4.2,4.2,0,0,0-.14,1.44l-.24.64a2.23,2.23,0,0,1-.64.56c-.24.14-.47.27-.7.38a1,1,0,0,1-.33.21l-.32.14-.17.65-.71.12c-.43.07-.73.13-.91.17a2.74,2.74,0,0,1-.61.06l-.59-.06c-.43-.35-.76-.63-1-.85a6,6,0,0,0-.82-.61,3,3,0,0,1-.59-1.06c0-.23-.08-.45-.12-.64a4,4,0,0,1-.14-.59.6.6,0,0,0-.15-.35l-.76-.7.64-.53.06-1q1.17-3,2.49-5.74c.88-1.83,1.79-3.71,2.73-5.62.31-.63.61-1.25.91-1.88s.59-1.25.9-1.87a1.31,1.31,0,0,1-.06-.41,1.39,1.39,0,0,1,.12-.53c.43-.66.78-1.26,1.06-1.79l.82-1.61c.31-.66.63-1.31,1-1.93a14.77,14.77,0,0,1,1.26-1.94l.94-.41.41-.14a1.47,1.47,0,0,1,.53-.09l.88.12a8.81,8.81,0,0,0,2.87-2.14,29.94,29.94,0,0,0,2.52-3.31l.58-.82.77.46a3.14,3.14,0,0,0,.82.33l1.11.32c.7.16,1.37.33,2,.53a3.55,3.55,0,0,1,1.52.88,6.74,6.74,0,0,1,.42,1.4,6.19,6.19,0,0,0,.17.94c.12.66.23,1.33.32,2s.17,1.41.21,2.23c.19.66.36,1.32.5,2s.26,1.3.38,2c.19.94.39,1.85.58,2.73a16.83,16.83,0,0,0,.76,2.49,1.68,1.68,0,0,1,.59.06,3.17,3.17,0,0,1,.62-.18l.73-.12.64-.05.24.58c0,.2.23.39.58.59a2.16,2.16,0,0,1,1.12.32,6.93,6.93,0,0,1,.64.56,2,2,0,0,0,.47.35l.88.35-.47.88a7.86,7.86,0,0,1-1.67,2,10.37,10.37,0,0,1-2.43,1.61c0,.24.07.46.09.68a3,3,0,0,0,.14.67c.12.66.22,1.35.3,2.05a11.24,11.24,0,0,1,0,2.17ZM415.81,29.36c1.18-.08,2.24-.17,3.2-.27s2-.26,3.19-.5c-.27-1.17-.56-2.39-.88-3.66s-.64-2.53-1-3.78l-.35.59a24.19,24.19,0,0,0-2.26,2.75c-.72,1-1.34,2-1.85,2.87l-.7,1.06c-.23.35-.45.7-.64,1a3.88,3.88,0,0,1,.67-.06A3,3,0,0,0,415.81,29.36Z" style="fill:#fff"/><path d="M448.72,33.75a1,1,0,0,0-.76.62c-.16.33-.31.67-.44,1s-.28.67-.41,1a.67.67,0,0,1-.62.44,1.79,1.79,0,0,1-.32.82c-.18.23-.34.48-.5.73a3,3,0,0,0-.35.82,1.61,1.61,0,0,0,.12,1,1.49,1.49,0,0,0-.59,1c-.08.43-.17.84-.26,1.23a2.48,2.48,0,0,1-.5,1,1.53,1.53,0,0,1-1.29.35c-.12.16-.14.25-.06.29s.14.18.18.41a1.39,1.39,0,0,0-1,.09,1.89,1.89,0,0,1-.79.26,3.84,3.84,0,0,1-1.85-1.23,10.9,10.9,0,0,1-1.29-2,22.77,22.77,0,0,1-1-2.2c-.3-.74-.58-1.38-.85-1.93a2.7,2.7,0,0,0,.06-1.26,2.75,2.75,0,0,0-.41-1q2.87-6.09,6.27-13t6.44-13.66c.9.36,1.79.76,2.67,1.21a13.35,13.35,0,0,1,2.4,1.55,9.1,9.1,0,0,1,1.85,2,6.44,6.44,0,0,1,1,2.55c-.08.23-.17.32-.26.26s-.19,0-.27.09a1.47,1.47,0,0,1,.27.41.49.49,0,0,1,0,.24,1.27,1.27,0,0,0,0,.32,1.44,1.44,0,0,0,.17.55c-.15,0-.26,0-.32.06s-.18.08-.38,0a2,2,0,0,1,.15,1.06,2.63,2.63,0,0,1-.27.73,4.45,4.45,0,0,0-.29.7,1.66,1.66,0,0,0,.06,1,.33.33,0,0,0-.26.09,1.14,1.14,0,0,0-.15.17,1.19,1.19,0,0,1-.15.18.23.23,0,0,1-.26,0,14.87,14.87,0,0,1,.12,2.58c0,.86-.07,1.72-.09,2.6s0,1.8,0,2.76a15.7,15.7,0,0,0,.41,3,10,10,0,0,0,3.37-3.17,18.6,18.6,0,0,0,2.05-4.33,30.45,30.45,0,0,0,1.2-5.16c.27-1.83.56-3.71.88-5.62a3.9,3.9,0,0,0,.82-1.29c.19-.51.37-1.05.53-1.61s.31-1.14.46-1.7a9.2,9.2,0,0,1,.59-1.56,3.29,3.29,0,0,1,1.49.56,10.68,10.68,0,0,1,1.15.94,12.42,12.42,0,0,0,1.11.93,3,3,0,0,0,1.47.56c.46.67.89,1.31,1.28,1.93a5.51,5.51,0,0,1,.77,2,3.29,3.29,0,0,0-.44,1.05q-.15.58-.33,1.17a4.83,4.83,0,0,1-.46,1.09,2.76,2.76,0,0,1-.82.85c-.12,1-.27,1.94-.44,2.78s-.36,1.67-.53,2.49-.32,1.67-.44,2.55a16.83,16.83,0,0,0-.12,2.9l-1,2.87a25.87,25.87,0,0,0-.82,2.75,5.47,5.47,0,0,0-1.47,1.82c-.35.7-.72,1.41-1.11,2.11q-.24.24-.3.12c0-.08-.17-.14-.41-.18a.51.51,0,0,1,0,.35.6.6,0,0,1-.14.21.49.49,0,0,0-.12.26.9.9,0,0,0,.09.47,4.73,4.73,0,0,0-1.47,1A10.86,10.86,0,0,1,460.41,43a4.13,4.13,0,0,1-1.76.7,5.51,5.51,0,0,1-2.67-.41,22.94,22.94,0,0,1-4.25-4A19.13,19.13,0,0,1,448.72,33.75Z" style="fill:#fff"/></g></g></svg>